<svg id="Layer_1" data-name="Layer 1" xmlns="http://www.w3.org/2000/svg" viewBox="0 0 214 191.03"><defs><style>.cls-1{font-size:12px;font-family:MyriadPro-Regular, Myriad Pro;}</style></defs><title>Untitled-2</title><text class="cls-1" transform="translate(30.51 97.73) rotate(-53.65)">L</text><text class="cls-1" transform="translate(33.72 93.34) rotate(-51.78)">o</text><text class="cls-1" transform="translate(37.78 88.22) rotate(-50.16)">r</text><text class="cls-1" transform="matrix(0.66, -0.75, 0.75, 0.66, 40.16, 85.33)">e</text><text class="cls-1" transform="translate(44.06 80.84) rotate(-46.28)">m</text><text class="cls-1" transform="translate(50.97 73.7) rotate(-44.43)"> </text><text class="cls-1" transform="translate(52.78 71.93) rotate(-43.65)">i</text><text class="cls-1" transform="translate(54.74 70.02) rotate(-42.27)">p</text><text class="cls-1" transform="matrix(0.76, -0.65, 0.65, 0.76, 59.77, 65.47)">s</text><text class="cls-1" transform="translate(63.31 62.41) rotate(-39.04)">u</text><text class="cls-1" transform="matrix(0.8, -0.6, 0.6, 0.8, 68.36, 58.27)">m</text><text class="cls-1" transform="matrix(0.82, -0.57, 0.57, 0.82, 76.38, 52.35)"> </text><text class="cls-1" transform="matrix(0.83, -0.56, 0.56, 0.83, 78.41, 50.9)">d</text><text class="cls-1" transform="translate(84 47.16) rotate(-32.03)">o</text><text class="cls-1" transform="translate(89.55 43.71) rotate(-30.81)">l</text><text class="cls-1" transform="translate(91.94 42.26) rotate(-29.58)">o</text><text class="cls-1" transform="matrix(0.88, -0.47, 0.47, 0.88, 97.63, 39.05)">r</text><text class="cls-1" transform="translate(101.07 37.21) rotate(-27.41)"> </text><text class="cls-1" transform="matrix(0.89, -0.45, 0.45, 0.89, 103.29, 36.04)">s</text><text class="cls-1" transform="translate(107.5 33.95) rotate(-25.55)">i</text><text class="cls-1" transform="translate(110.01 32.75) rotate(-24.7)">t</text><text class="cls-1" transform="translate(113.61 31.1) rotate(-23.89)"> </text><text class="cls-1" transform="translate(115.89 30.07) rotate(-22.86)">a</text><text class="cls-1" transform="matrix(0.93, -0.36, 0.36, 0.93, 121.14, 27.82)">m</text><text class="cls-1" transform="translate(130.45 24.29) rotate(-18.99)">e</text><text class="cls-1" transform="translate(136.08 22.37) rotate(-17.8)">t</text><text class="cls-1" transform="translate(139.81 21.17) rotate(-17.04)">,</text><text class="cls-1" transform="matrix(0.96, -0.28, 0.28, 0.96, 142.17, 20.45)"> </text><text class="cls-1" transform="matrix(0.96, -0.27, 0.27, 0.96, 144.57, 19.73)">c</text><text class="cls-1" transform="translate(149.63 18.32) rotate(-14.11)">o</text><text class="cls-1" transform="translate(155.97 16.72) rotate(-12.57)">n</text><text class="cls-1" transform="translate(162.42 15.29) rotate(-11.24)">s</text><text class="cls-1" transform="translate(167.05 14.37) rotate(-10)">e</text><text class="cls-1" transform="translate(172.92 13.33) rotate(-8.7)">c</text><text class="cls-1" transform="translate(178.36 12.51) rotate(-7.6)">t</text><text class="cls-1" transform="translate(182.19 11.99) rotate(-6.48)">e</text><text class="cls-1" transform="translate(188.1 11.33) rotate(-5.36)">t</text><text class="cls-1" transform="matrix(1, -0.07, 0.07, 1, 192.02, 10.94)">u</text><text class="cls-1" transform="translate(198.57 10.47) rotate(-2.77)">e</text><text class="cls-1" transform="translate(204.53 10.19) rotate(-1.67)">r</text><text class="cls-1" transform="translate(208.45 10.08) rotate(-0.95)"> </text></svg>